<?xml version="1.0"?>
<svg version="1.1" xmlns="http://www.w3.org/2000/svg" xmlns:xlink="http://www.w3.org/1999/xlink" width="160" height="60">
    <desc iVinci="yes" version="4.6" gridStep="10" showGrid="no" snapToGrid="no" codePlatform="0"/>
    <g id="Layer1" name="Layer 2" visibility="hidden" opacity="1">
        <g id="Shape1">
            <desc shapeID="1" type="2" basicInfo-basicType="0" basicInfo-roundedRectRadius="12" basicInfo-polygonSides="6" basicInfo-starPoints="5" bounding="rect(-94.8053,-50.5451,189.611,101.09)" text="clear" font-familyName="Century Gothic" font-pixelSize="60" font-bold="0" font-underline="0" font-alignment="1" strokeStyle="0" markerStart="0" markerEnd="0" shadowEnabled="0" shadowOffsetX="0" shadowOffsetY="2" shadowBlur="4" shadowOpacity="160" blurEnabled="0" blurRadius="4" transform="matrix(1,0,-0.146486,0.989213,79.12,23.6319)" pers-center="0,0" pers-size="0,0" pers-start="0,0" pers-end="0,0" locked="0" mesh="" flag=""/>
            <path id="shapePath1" d="M40.4327,22.206 L36.8846,24.2057 C34.6186,20.5155 31.0539,18.6704 26.1907,18.6704 C22.3039,18.6704 18.8933,19.9069 15.9587,22.3799 C13.0241,24.853 11.2951,27.8573 10.7715,31.393 C10.431,33.6921 10.7014,35.856 11.5826,37.8847 C12.4639,39.9133 13.8518,41.488 15.7464,42.6086 C17.641,43.7291 19.8676,44.2894 22.4262,44.2894 C27.1137,44.2894 31.2151,42.4443 34.7303,38.7541 L37.6689,40.8697 C35.8108,43.1302 33.5052,44.8836 30.7523,46.1297 C27.9994,47.3759 24.9823,47.999 21.7011,47.999 C16.662,47.999 12.7169,46.4147 9.86585,43.2461 C7.01476,40.0776 5.92538,36.2231 6.59772,31.6828 C7.04977,28.6301 8.24599,25.7948 10.1864,23.1769 C12.1268,20.559 14.5632,18.5158 17.4954,17.0475 C20.4277,15.5791 23.5736,14.8449 26.9329,14.8449 C29.0423,14.8449 31.0312,15.1637 32.8997,15.8013 C34.7682,16.4389 36.3102,17.2696 37.5257,18.2936 C38.7413,19.3176 39.7103,20.6218 40.4327,22.206 M50.4648,3.48442 L54.5664,3.48442 L48.0947,47.1875 L43.9931,47.1875 L50.4648,3.48442 M84.9936,36.7254 L88.1845,38.5223 C86.7255,40.7248 85.1537,42.5023 83.4691,43.8547 C81.7844,45.2072 79.9622,46.236 78.0023,46.9412 C76.0424,47.6464 73.8905,47.999 71.5468,47.999 C66.3515,47.999 62.5386,46.3133 60.1082,42.9418 C57.6777,39.5704 56.7772,35.7594 57.4067,31.5089 C57.9989,27.5095 59.767,23.9449 62.711,20.815 C66.4449,16.8349 70.9486,14.8449 76.222,14.8449 C81.6517,14.8449 85.6858,16.8832 88.3243,20.9599 C90.2027,23.8386 90.8424,27.4323 90.2434,31.7407 L61.5911,31.7407 C61.1256,35.4116 61.8616,38.4208 63.7992,40.7683 C65.7367,43.1157 68.3852,44.2894 71.7446,44.2894 C73.3657,44.2894 74.9843,44.0093 76.6005,43.449 C78.2166,42.8887 79.6305,42.1449 80.842,41.2175 C82.0536,40.2901 83.4374,38.7927 84.9936,36.7254 M86.251,28.2341 C86.0246,26.0702 85.4847,24.341 84.6315,23.0465 C83.7783,21.752 82.5509,20.7087 80.9495,19.9166 C79.348,19.1244 77.6,18.7283 75.7055,18.7283 C72.5805,18.7283 69.7476,19.7234 67.2068,21.7134 C65.3516,23.1624 63.7895,25.336 62.5205,28.2341 L86.251,28.2341 M132.02,15.6564 L127.351,47.1875 L123.308,47.1875 L124.11,41.7681 C122.085,43.8354 119.926,45.3907 117.633,46.434 C115.34,47.4773 112.924,47.999 110.385,47.999 C105.873,47.999 102.26,46.3809 99.5459,43.1447 C96.8318,39.9085 95.818,35.9719 96.5047,31.335 C97.177,26.7947 99.3634,22.9112 103.064,19.6847 C106.764,16.4582 110.88,14.8449 115.411,14.8449 C118.029,14.8449 120.315,15.3955 122.271,16.4968 C124.227,17.5981 125.843,19.25 127.119,21.4525 L127.977,15.6564 L132.02,15.6564 M115.154,18.7573 C112.869,18.7573 110.678,19.3128 108.579,20.4237 C106.481,21.5347 104.712,23.0948 103.272,25.1041 C101.832,27.1135 100.946,29.2387 100.614,31.4799 C100.285,33.7018 100.547,35.827 101.398,37.8557 C102.25,39.8844 103.564,41.4638 105.34,42.5941 C107.116,43.7243 109.118,44.2894 111.344,44.2894 C113.59,44.2894 115.802,43.7291 117.98,42.6086 C120.157,41.488 121.93,39.9713 123.297,38.0586 C124.664,36.1458 125.525,33.9916 125.88,31.5958 C126.421,27.9443 125.657,24.8916 123.589,22.4379 C121.521,19.9842 118.709,18.7573 115.154,18.7573 M139.694,15.6564 L143.883,15.6564 L143.201,20.2643 C144.72,18.4482 146.239,17.0909 147.759,16.1925 C149.279,15.2941 150.79,14.8449 152.294,14.8449 C153.427,14.8449 154.585,15.2023 155.768,15.9172 L153.123,19.3369 C152.318,18.9698 151.623,18.7863 151.037,18.7863 C149.67,18.7863 148.269,19.3418 146.835,20.4527 C145.401,21.5636 144.179,23.288 143.168,25.6258 C142.395,27.4226 141.603,31.0549 140.793,36.5226 L139.214,47.1875 L135.024,47.1875 L139.694,15.6564 Z" style="stroke:none;fill-rule:nonzero;fill:#e800f5;fill-opacity:1;"/>
        </g>
    </g>
    <g id="Layer2" name="word" visibility="hidden" opacity="1">
        <g id="Shape2">
            <desc shapeID="2" type="2" basicInfo-basicType="0" basicInfo-roundedRectRadius="12" basicInfo-polygonSides="6" basicInfo-starPoints="5" bounding="rect(-94.8053,-50.5451,189.611,101.09)" text="clear" font-familyName="Century Gothic" font-pixelSize="60" font-bold="0" font-underline="0" font-alignment="1" strokeStyle="0" markerStart="0" markerEnd="0" shadowEnabled="0" shadowOffsetX="0" shadowOffsetY="2" shadowBlur="4" shadowOpacity="160" blurEnabled="0" blurRadius="4" transform="matrix(1,0,-0.146486,0.989213,77.905,22.1313)" pers-center="0,0" pers-size="0,0" pers-start="0,0" pers-end="0,0" locked="0" mesh="" flag=""/>
            <path id="shapePath2" d="M39.2177,20.7054 L35.6696,22.7051 C33.4036,19.0149 29.8389,17.1698 24.9757,17.1698 C21.0889,17.1698 17.6783,18.4063 14.7437,20.8793 C11.8091,23.3524 10.0801,26.3567 9.5565,29.8924 C9.21603,32.1915 9.48641,34.3554 10.3676,36.3841 C11.2489,38.4127 12.6368,39.9874 14.5314,41.108 C16.426,42.2285 18.6526,42.7888 21.2112,42.7888 C25.8987,42.7888 30,40.9437 33.5153,37.2535 L36.4539,39.3691 C34.5957,41.6296 32.2902,43.3829 29.5373,44.6291 C26.7844,45.8753 23.7673,46.4984 20.4861,46.4984 C15.447,46.4984 11.5019,44.9141 8.65085,41.7455 C5.79975,38.577 4.71037,34.7225 5.38272,30.1822 C5.83476,27.1295 7.03099,24.2942 8.9714,21.6763 C10.9118,19.0584 13.3482,17.0152 16.2804,15.5469 C19.2127,14.0785 22.3586,13.3443 25.7179,13.3443 C27.8273,13.3443 29.8162,13.6631 31.6847,14.3007 C33.5532,14.9383 35.0952,15.769 36.3107,16.793 C37.5263,17.817 38.4953,19.1212 39.2177,20.7054 M49.2498,1.98382 L53.3514,1.98382 L46.8797,45.6869 L42.7781,45.6869 L49.2498,1.98382 M83.7786,35.2248 L86.9695,37.0217 C85.5105,39.2242 83.9387,41.0017 82.2541,42.3541 C80.5694,43.7066 78.7472,44.7354 76.7873,45.4406 C74.8274,46.1458 72.6755,46.4984 70.3318,46.4984 C65.1365,46.4984 61.3236,44.8127 58.8932,41.4412 C56.4627,38.0698 55.5622,34.2588 56.1917,30.0083 C56.7839,26.0089 58.552,22.4443 61.496,19.3144 C65.2299,15.3343 69.7336,13.3443 75.007,13.3443 C80.4367,13.3443 84.4708,15.3826 87.1093,19.4593 C88.9877,22.338 89.6274,25.9317 89.0284,30.2401 L60.3761,30.2401 C59.9106,33.911 60.6466,36.9202 62.5842,39.2677 C64.5217,41.6151 67.1702,42.7888 70.5296,42.7888 C72.1507,42.7888 73.7693,42.5087 75.3855,41.9484 C77.0016,41.3881 78.4155,40.6443 79.627,39.7169 C80.8386,38.7895 82.2224,37.2921 83.7786,35.2248 M85.036,26.7335 C84.8096,24.5696 84.2697,22.8404 83.4165,21.5459 C82.5633,20.2514 81.3359,19.2081 79.7345,18.416 C78.133,17.6238 76.385,17.2277 74.4905,17.2277 C71.3655,17.2277 68.5326,18.2227 65.9918,20.2128 C64.1366,21.6618 62.5745,23.8354 61.3055,26.7335 L85.036,26.7335 M130.805,14.1558 L126.136,45.6869 L122.093,45.6869 L122.895,40.2675 C120.87,42.3348 118.711,43.8901 116.418,44.9334 C114.125,45.9767 111.709,46.4984 109.17,46.4984 C104.658,46.4984 101.045,44.8803 98.3309,41.6441 C95.6168,38.4079 94.603,34.4713 95.2897,29.8344 C95.962,25.2941 98.1484,21.4106 101.849,18.1841 C105.549,14.9576 109.665,13.3443 114.196,13.3443 C116.814,13.3443 119.1,13.8949 121.056,14.9962 C123.012,16.0975 124.628,17.7494 125.904,19.9519 L126.762,14.1558 L130.805,14.1558 M113.939,17.2567 C111.654,17.2567 109.463,17.8122 107.364,18.9231 C105.266,20.0341 103.497,21.5942 102.057,23.6035 C100.617,25.6129 99.731,27.7381 99.3991,29.9793 C99.0701,32.2012 99.3315,34.3264 100.183,36.3551 C101.035,38.3838 102.349,39.9632 104.125,41.0935 C105.901,42.2237 107.903,42.7888 110.129,42.7888 C112.375,42.7888 114.587,42.2285 116.765,41.108 C118.942,39.9874 120.715,38.4707 122.082,36.558 C123.449,34.6452 124.31,32.491 124.665,30.0952 C125.206,26.4436 124.442,23.391 122.374,20.9373 C120.306,18.4836 117.494,17.2567 113.939,17.2567 M138.479,14.1558 L142.668,14.1558 L141.986,18.7637 C143.505,16.9476 145.024,15.5903 146.544,14.6919 C148.064,13.7935 149.575,13.3443 151.079,13.3443 C152.212,13.3443 153.37,13.7017 154.553,14.4166 L151.908,17.8363 C151.103,17.4692 150.408,17.2857 149.822,17.2857 C148.455,17.2857 147.054,17.8412 145.62,18.9521 C144.186,20.063 142.964,21.7874 141.953,24.1252 C141.18,25.922 140.388,29.5543 139.578,35.022 L137.999,45.6869 L133.809,45.6869 L138.479,14.1558 Z" style="stroke:none;fill-rule:nonzero;fill:#1af510;fill-opacity:1;"/>
        </g>
    </g>
    <g id="Layer3" name="Layer 6" opacity="1">
        <g id="Shape3">
            <desc shapeID="3" type="0" basicInfo-basicType="0" basicInfo-roundedRectRadius="12" basicInfo-polygonSides="6" basicInfo-starPoints="5" bounding="rect(-3.14912,-2.96394,6.29824,5.92791)" text="" font-familyName="Century Gothic" font-pixelSize="60" font-bold="0" font-underline="0" font-alignment="1" strokeStyle="0" markerStart="0" markerEnd="0" shadowEnabled="0" shadowOffsetX="0" shadowOffsetY="2" shadowBlur="4" shadowOpacity="160" blurEnabled="0" blurRadius="4" transform="matrix(1.84512,0,0,1.84512,153.872,53.1587)" pers-center="0,0" pers-size="0,0" pers-start="0,0" pers-end="0,0" locked="0" mesh="" flag=""/>
            <path id="shapePath3" d="M153.872,47.6899 L155.119,51.917 L159.683,53.1588 L155.119,54.7463 L153.872,58.6276 L152.453,54.7463 L148.062,53.1586 L152.453,51.917 L153.872,47.6899 Z" style="stroke:none;fill-rule:evenodd;fill:#000000;fill-opacity:0.196078;"/>
        </g>
        <g id="Shape4">
            <desc shapeID="4" type="0" basicInfo-basicType="1" basicInfo-roundedRectRadius="12" basicInfo-polygonSides="6" basicInfo-starPoints="5" bounding="rect(-60.9037,-1.0615,121.807,2.123)" text="" font-familyName="Century Gothic" font-pixelSize="60" font-bold="0" font-underline="0" font-alignment="1" strokeStyle="0" markerStart="0" markerEnd="0" shadowEnabled="0" shadowOffsetX="0" shadowOffsetY="2" shadowBlur="4" shadowOpacity="160" blurEnabled="0" blurRadius="4" transform="matrix(1.1623,0,0,1,74.4191,53.3335)" pers-center="0,0" pers-size="0,0" pers-start="0,0" pers-end="0,0" locked="0" mesh="" flag=""/>
            <path id="shapePath4" d="M3.63074,52.272 L145.207,52.272 L145.207,54.395 L3.63074,54.395 L3.63074,52.272 Z" style="stroke:none;fill-rule:evenodd;fill:#000000;fill-opacity:0.196078;"/>
        </g>
        <g id="Shape5">
            <desc shapeID="5" type="2" basicInfo-basicType="0" basicInfo-roundedRectRadius="12" basicInfo-polygonSides="6" basicInfo-starPoints="5" bounding="rect(-12.7822,-16.3019,25.5644,32.6038)" text="-" font-familyName="Century Gothic" font-pixelSize="40" font-bold="0" font-underline="0" font-alignment="1" strokeStyle="0" markerStart="0" markerEnd="0" shadowEnabled="0" shadowOffsetX="0" shadowOffsetY="2" shadowBlur="4" shadowOpacity="160" blurEnabled="0" blurRadius="4" transform="matrix(1,0,0,1,92.9191,7.83434)" pers-center="0,0" pers-size="0,0" pers-start="0,0" pers-end="0,0" locked="0" mesh="" flag=""/>
            <path id="shapePath5" d="M87.548,10.7797 L98.2902,10.7797 L98.2902,13.1625 L87.548,13.1625 L87.548,10.7797 Z" style="stroke:none;fill-rule:nonzero;fill:#000000;fill-opacity:0.196078;"/>
        </g>
    </g>
    <g id="Layer4" name="Layer 1" opacity="1">
        <g id="Shape6">
            <desc shapeID="6" type="0" basicInfo-basicType="0" basicInfo-roundedRectRadius="12" basicInfo-polygonSides="6" basicInfo-starPoints="5" bounding="rect(-3.14912,-2.96394,6.29823,5.92791)" text="" font-familyName="Century Gothic" font-pixelSize="60" font-bold="0" font-underline="0" font-alignment="1" strokeStyle="0" markerStart="0" markerEnd="0" shadowEnabled="0" shadowOffsetX="0" shadowOffsetY="2" shadowBlur="4" shadowOpacity="160" blurEnabled="0" blurRadius="4" transform="matrix(1.84512,0,0,1.84512,152.658,51.9437)" pers-center="0,0" pers-size="0,0" pers-start="0,0" pers-end="0,0" locked="0" mesh="" flag=""/>
            <path id="shapePath6" d="M152.657,46.4749 L153.904,50.7021 L158.468,51.9438 L153.904,53.5314 L152.657,57.4126 L151.238,53.5314 L146.847,51.9437 L151.238,50.7021 L152.657,46.4749 Z" style="stroke:none;fill-rule:evenodd;fill:#fa1728;fill-opacity:1;"/>
        </g>
        <g id="Shape7">
            <desc shapeID="7" type="0" basicInfo-basicType="1" basicInfo-roundedRectRadius="12" basicInfo-polygonSides="6" basicInfo-starPoints="5" bounding="rect(-60.9037,-1.0615,121.807,2.123)" text="" font-familyName="Century Gothic" font-pixelSize="60" font-bold="0" font-underline="0" font-alignment="1" strokeStyle="0" markerStart="0" markerEnd="0" shadowEnabled="0" shadowOffsetX="0" shadowOffsetY="2" shadowBlur="4" shadowOpacity="160" blurEnabled="0" blurRadius="4" transform="matrix(1.1623,0,0,1,73.2041,52.1185)" pers-center="0,0" pers-size="0,0" pers-start="0,0" pers-end="0,0" locked="0" mesh="" flag=""/>
            <path id="shapePath7" d="M2.41578,51.057 L143.992,51.057 L143.992,53.18 L2.41578,53.18 L2.41578,51.057 Z" style="stroke:none;fill-rule:evenodd;fill:#fa1728;fill-opacity:1;"/>
        </g>
        <g id="Shape8">
            <desc shapeID="8" type="2" basicInfo-basicType="0" basicInfo-roundedRectRadius="12" basicInfo-polygonSides="6" basicInfo-starPoints="5" bounding="rect(-12.7822,-16.3019,25.5644,32.6038)" text="-" font-familyName="Century Gothic" font-pixelSize="40" font-bold="0" font-underline="0" font-alignment="1" strokeStyle="0" markerStart="0" markerEnd="0" shadowEnabled="0" shadowOffsetX="0" shadowOffsetY="2" shadowBlur="4" shadowOpacity="160" blurEnabled="0" blurRadius="4" transform="matrix(1,0,0,1,91.7041,6.61938)" pers-center="0,0" pers-size="0,0" pers-start="0,0" pers-end="0,0" locked="0" mesh="" flag=""/>
            <path id="shapePath8" d="M86.333,9.56469 L97.0752,9.56469 L97.0752,11.9475 L86.333,11.9475 L86.333,9.56469 Z" style="stroke:none;fill-rule:nonzero;fill:#fa1728;fill-opacity:1;"/>
        </g>
    </g>
    <g id="Layer5" name="Layer 10" opacity="1">
        <g id="Shape9">
            <desc shapeID="9" type="2" basicInfo-basicType="0" basicInfo-roundedRectRadius="12" basicInfo-polygonSides="6" basicInfo-starPoints="5" bounding="rect(-94.8053,-50.5451,189.611,101.09)" text="ar" font-familyName="Century Gothic" font-pixelSize="60" font-bold="0" font-underline="0" font-alignment="1" strokeStyle="0" markerStart="0" markerEnd="0" shadowEnabled="0" shadowOffsetX="0" shadowOffsetY="2" shadowBlur="4" shadowOpacity="160" blurEnabled="0" blurRadius="4" transform="matrix(1,0,-0.146486,0.989213,123.976,23.6472)" pers-center="0,0" pers-size="0,0" pers-start="0,0" pers-end="0,0" locked="0" mesh="" flag=""/>
            <path id="shapePath9" d="M131.985,15.6717 L127.316,47.2028 L123.273,47.2028 L124.075,41.7834 C122.051,43.8507 119.892,45.406 117.598,46.4493 C115.305,47.4926 112.889,48.0143 110.35,48.0143 C105.838,48.0143 102.225,46.3962 99.5113,43.16 C96.7971,39.9238 95.7834,35.9872 96.4701,31.3503 C97.1424,26.81 99.3288,22.9265 103.029,19.7 C106.73,16.4735 110.846,14.8602 115.377,14.8602 C117.994,14.8602 120.281,15.4108 122.237,16.5121 C124.193,17.6134 125.808,19.2653 127.084,21.4678 L127.942,15.6717 L131.985,15.6717 M115.12,18.7726 C112.835,18.7726 110.643,19.3281 108.545,20.439 C106.447,21.55 104.678,23.1101 103.237,25.1194 C101.797,27.1288 100.911,29.254 100.579,31.4952 C100.25,33.7171 100.512,35.8423 101.364,37.871 C102.216,39.8997 103.53,41.4791 105.306,42.6094 C107.082,43.7396 109.083,44.3047 111.31,44.3047 C113.556,44.3047 115.768,43.7444 117.945,42.6239 C120.123,41.5033 121.895,39.9866 123.262,38.0739 C124.63,36.1611 125.491,34.0069 125.845,31.6111 C126.386,27.9595 125.622,24.9069 123.554,22.4532 C121.486,19.9995 118.674,18.7726 115.12,18.7726 M139.659,15.6717 L143.848,15.6717 L143.166,20.2796 C144.685,18.4635 146.204,17.1062 147.724,16.2078 C149.244,15.3094 150.756,14.8602 152.26,14.8602 C153.392,14.8602 154.55,15.2176 155.734,15.9325 L153.089,19.3522 C152.284,18.9851 151.588,18.8016 151.002,18.8016 C149.635,18.8016 148.234,19.3571 146.8,20.468 C145.366,21.5789 144.144,23.3033 143.134,25.6411 C142.36,27.4379 141.568,31.0702 140.759,36.5379 L139.179,47.2028 L134.99,47.2028 L139.659,15.6717 Z" style="stroke:none;fill-rule:nonzero;fill:#000000;fill-opacity:0.196078;"/>
        </g>
    </g>
    <g id="Layer6" name="Layer 3" opacity="1">
        <g id="Shape10">
            <desc shapeID="10" type="2" basicInfo-basicType="0" basicInfo-roundedRectRadius="12" basicInfo-polygonSides="6" basicInfo-starPoints="5" bounding="rect(-94.8053,-50.5451,189.611,101.09)" text="ar" font-familyName="Century Gothic" font-pixelSize="60" font-bold="0" font-underline="0" font-alignment="1" strokeStyle="0" markerStart="0" markerEnd="0" shadowEnabled="0" shadowOffsetX="0" shadowOffsetY="2" shadowBlur="4" shadowOpacity="160" blurEnabled="0" blurRadius="4" transform="matrix(1,0,-0.146486,0.989213,122.713,22.131)" pers-center="0,0" pers-size="0,0" pers-start="0,0" pers-end="0,0" locked="0" mesh="" flag=""/>
            <path id="shapePath10" d="M130.722,14.1555 L126.053,45.6866 L122.01,45.6866 L122.812,40.2672 C120.788,42.3345 118.629,43.8898 116.335,44.9331 C114.042,45.9764 111.626,46.4981 109.087,46.4981 C104.575,46.4981 100.962,44.88 98.2483,41.6438 C95.5341,38.4076 94.5204,34.471 95.2071,29.8341 C95.8794,25.2938 98.0658,21.4103 101.766,18.1838 C105.467,14.9573 109.583,13.344 114.114,13.344 C116.731,13.344 119.018,13.8946 120.974,14.9959 C122.93,16.0972 124.545,17.7491 125.821,19.9516 L126.679,14.1555 L130.722,14.1555 M113.857,17.2564 C111.572,17.2564 109.38,17.8119 107.282,18.9228 C105.184,20.0338 103.415,21.5939 101.974,23.6032 C100.534,25.6126 99.6483,27.7378 99.3165,29.979 C98.9874,32.2009 99.2489,34.3261 100.101,36.3548 C100.953,38.3835 102.267,39.9629 104.043,41.0932 C105.819,42.2234 107.82,42.7885 110.047,42.7885 C112.293,42.7885 114.505,42.2282 116.682,41.1077 C118.86,39.9871 120.632,38.4704 121.999,36.5577 C123.367,34.6449 124.228,32.4907 124.582,30.0949 C125.123,26.4433 124.359,23.3907 122.291,20.937 C120.223,18.4833 117.411,17.2564 113.857,17.2564 M138.396,14.1555 L142.585,14.1555 L141.903,18.7634 C143.422,16.9473 144.941,15.59 146.461,14.6916 C147.981,13.7932 149.493,13.344 150.997,13.344 C152.129,13.344 153.287,13.7014 154.471,14.4163 L151.826,17.836 C151.021,17.4689 150.325,17.2854 149.739,17.2854 C148.372,17.2854 146.971,17.8409 145.537,18.9518 C144.103,20.0627 142.881,21.7871 141.871,24.1249 C141.097,25.9217 140.305,29.554 139.496,35.0217 L137.916,45.6866 L133.727,45.6866 L138.396,14.1555 Z" style="stroke:none;fill-rule:nonzero;fill:#000000;fill-opacity:1;"/>
        </g>
    </g>
    <g id="Layer7" name="Layer 9" opacity="1">
        <g id="Shape11">
            <desc shapeID="11" type="2" basicInfo-basicType="0" basicInfo-roundedRectRadius="12" basicInfo-polygonSides="6" basicInfo-starPoints="5" bounding="rect(-94.8053,-50.5451,189.611,101.09)" text="cl" font-familyName="Century Gothic" font-pixelSize="60" font-bold="0" font-underline="0" font-alignment="1" strokeStyle="0" markerStart="0" markerEnd="0" shadowEnabled="0" shadowOffsetX="0" shadowOffsetY="2" shadowBlur="4" shadowOpacity="160" blurEnabled="0" blurRadius="4" transform="matrix(1,0,-0.146486,0.989213,30.2171,23.6965)" pers-center="0,0" pers-size="0,0" pers-start="0,0" pers-end="0,0" locked="0" mesh="" flag=""/>
            <path id="shapePath11" d="M40.5454,22.2706 L36.9974,24.2703 C34.7313,20.5801 31.1667,18.735 26.3034,18.735 C22.4167,18.735 19.006,19.9715 16.0714,22.4445 C13.1369,24.9176 11.4078,27.9219 10.8842,31.4576 C10.5438,33.7567 10.8141,35.9206 11.6954,37.9493 C12.5766,39.9779 13.9645,41.5526 15.8591,42.6732 C17.7537,43.7937 19.9803,44.354 22.5389,44.354 C27.2264,44.354 31.3278,42.5089 34.843,38.8187 L37.7817,40.9343 C35.9235,43.1948 33.6179,44.9482 30.865,46.1943 C28.1121,47.4405 25.0951,48.0636 21.8138,48.0636 C16.7748,48.0636 12.8297,46.4793 9.97857,43.3107 C7.12747,40.1422 6.0381,36.2877 6.71045,31.7474 C7.16249,28.6947 8.35872,25.8594 10.2991,23.2415 C12.2395,20.6236 14.6759,18.5804 17.6082,17.1121 C20.5404,15.6437 23.6863,14.9095 27.0457,14.9095 C29.155,14.9095 31.144,15.2283 33.0124,15.8659 C34.8809,16.5035 36.4229,17.3342 37.6385,18.3582 C38.854,19.3822 39.823,20.6864 40.5454,22.2706 M50.5776,3.54902 L54.6791,3.54902 L48.2074,47.2521 L44.1059,47.2521 L50.5776,3.54902 Z" style="stroke:none;fill-rule:nonzero;fill:#000000;fill-opacity:0.196078;"/>
        </g>
    </g>
    <g id="Layer8" name="Layer 4" opacity="1">
        <g id="Shape12">
            <desc shapeID="12" type="2" basicInfo-basicType="0" basicInfo-roundedRectRadius="12" basicInfo-polygonSides="6" basicInfo-starPoints="5" bounding="rect(-94.8053,-50.5451,189.611,101.09)" text="cl" font-familyName="Century Gothic" font-pixelSize="60" font-bold="0" font-underline="0" font-alignment="1" strokeStyle="0" markerStart="0" markerEnd="0" shadowEnabled="0" shadowOffsetX="0" shadowOffsetY="2" shadowBlur="4" shadowOpacity="160" blurEnabled="0" blurRadius="4" transform="matrix(1,0,-0.146486,0.989213,28.9537,22.1312)" pers-center="0,0" pers-size="0,0" pers-start="0,0" pers-end="0,0" locked="0" mesh="" flag=""/>
            <path id="shapePath12" d="M39.282,20.7053 L35.734,22.705 C33.4679,19.0148 29.9033,17.1697 25.04,17.1697 C21.1533,17.1697 17.7426,18.4062 14.808,20.8792 C11.8735,23.3523 10.1444,26.3566 9.62082,29.8923 C9.28036,32.1914 9.55074,34.3553 10.432,36.384 C11.3132,38.4126 12.7011,39.9873 14.5957,41.1079 C16.4903,42.2284 18.7169,42.7887 21.2755,42.7887 C25.963,42.7887 30.0644,40.9436 33.5796,37.2534 L36.5183,39.369 C34.6601,41.6295 32.3545,43.3829 29.6016,44.629 C26.8487,45.8752 23.8317,46.4983 20.5504,46.4983 C15.5114,46.4983 11.5663,44.914 8.71517,41.7454 C5.86407,38.5769 4.7747,34.7224 5.44704,30.1821 C5.89909,27.1294 7.09532,24.2941 9.03572,21.6762 C10.9761,19.0583 13.4125,17.0151 16.3448,15.5468 C19.277,14.0784 22.4229,13.3442 25.7822,13.3442 C27.8916,13.3442 29.8806,13.663 31.749,14.3006 C33.6175,14.9382 35.1595,15.7689 36.3751,16.7929 C37.5906,17.8169 38.5596,19.1211 39.282,20.7053 M49.3142,1.98372 L53.4157,1.98372 L46.944,45.6868 L42.8425,45.6868 L49.3142,1.98372 Z" style="stroke:none;fill-rule:nonzero;fill:#000000;fill-opacity:1;"/>
        </g>
    </g>
    <g id="Layer9" name="Layer 5" opacity="1">
        <g id="Shape13">
            <desc shapeID="13" type="2" basicInfo-basicType="0" basicInfo-roundedRectRadius="12" basicInfo-polygonSides="6" basicInfo-starPoints="5" bounding="rect(-94.8053,-50.5451,189.611,101.09)" text="e" font-familyName="Century Gothic" font-pixelSize="70" font-bold="0" font-underline="0" font-alignment="1" strokeStyle="0" markerStart="0" markerEnd="0" shadowEnabled="0" shadowOffsetX="0" shadowOffsetY="2" shadowBlur="4" shadowOpacity="160" blurEnabled="0" blurRadius="4" transform="matrix(1,0,-0.146486,0.989213,73.7609,20.9542)" pers-center="0,0" pers-size="0,0" pers-start="0,0" pers-end="0,0" locked="0" mesh="" flag=""/>
            <path id="shapePath13" d="M85.3913,36.3227 L89.1141,38.419 C87.412,40.9887 85.5782,43.0624 83.6128,44.6402 C81.6473,46.2181 79.5214,47.4184 77.2348,48.2411 C74.9483,49.0638 72.4378,49.4752 69.7034,49.4752 C63.6422,49.4752 59.1939,47.5085 56.3584,43.5752 C53.5229,39.6419 52.4723,35.1957 53.2066,30.2368 C53.8976,25.5708 55.9604,21.4121 59.395,17.7605 C63.7512,13.1171 69.0055,10.7954 75.1578,10.7954 C81.4925,10.7954 86.1989,13.1735 89.2772,17.9296 C91.4686,21.2881 92.215,25.4807 91.5162,30.5073 L58.0884,30.5073 C57.5454,34.79 58.4041,38.3007 60.6646,41.0394 C62.925,43.7781 66.0149,45.1474 69.9342,45.1474 C71.8254,45.1474 73.7138,44.8206 75.5994,44.1669 C77.4849,43.5132 79.1344,42.6454 80.5479,41.5634 C81.9614,40.4815 83.5758,38.7346 85.3913,36.3227 M86.8583,26.4161 C86.5942,23.8916 85.9643,21.8742 84.9689,20.364 C83.9735,18.8537 82.5416,17.6365 80.6732,16.7124 C78.8049,15.7882 76.7655,15.3261 74.5553,15.3261 C70.9094,15.3261 67.6044,16.487 64.6401,18.8087 C62.4757,20.4992 60.6533,23.035 59.1728,26.4161 L86.8583,26.4161 Z" style="stroke:none;fill-rule:nonzero;fill:#ffff7f;fill-opacity:0.705882;"/>
        </g>
    </g>
    <g id="Layer10" name="Layer 8" opacity="1">
        <g id="Shape14">
            <desc shapeID="14" type="2" basicInfo-basicType="0" basicInfo-roundedRectRadius="12" basicInfo-polygonSides="6" basicInfo-starPoints="5" bounding="rect(-94.8053,-50.5451,189.611,101.09)" text="e" font-familyName="Century Gothic" font-pixelSize="50" font-bold="0" font-underline="0" font-alignment="1" strokeStyle="0" markerStart="0" markerEnd="0" shadowEnabled="0" shadowOffsetX="0" shadowOffsetY="2" shadowBlur="4" shadowOpacity="160" blurEnabled="0" blurRadius="4" transform="matrix(1,0,-0.146486,0.989213,73.7609,23.6088)" pers-center="0,0" pers-size="0,0" pers-start="0,0" pers-end="0,0" locked="0" mesh="" flag=""/>
            <path id="shapePath14" d="M82.0964,34.4273 L84.7555,35.9247 C83.5397,37.7601 82.2298,39.2414 80.826,40.3684 C79.4221,41.4955 77.9035,42.3528 76.2703,42.9405 C74.637,43.5281 72.8438,43.822 70.8907,43.822 C66.5613,43.822 63.3839,42.4172 61.3585,39.6077 C59.3332,36.7981 58.5828,33.6223 59.1073,30.0802 C59.6008,26.7474 61.0742,23.7769 63.5275,21.1686 C66.6391,17.8519 70.3922,16.1936 74.7867,16.1936 C79.3114,16.1936 82.6732,17.8922 84.8719,21.2894 C86.4373,23.6883 86.9704,26.683 86.4712,30.2734 L62.5943,30.2734 C62.2064,33.3325 62.8198,35.8402 64.4344,37.7964 C66.049,39.7526 68.256,40.7307 71.0555,40.7307 C72.4064,40.7307 73.7553,40.4972 75.1021,40.0303 C76.4489,39.5634 77.6271,38.9435 78.6367,38.1707 C79.6464,37.3979 80.7996,36.1501 82.0964,34.4273 M83.1442,27.3512 C82.9555,25.5479 82.5057,24.1069 81.7946,23.0282 C81.0836,21.9495 80.0608,21.0801 78.7263,20.4199 C77.3917,19.7598 75.9351,19.4298 74.3563,19.4298 C71.7521,19.4298 69.3914,20.2589 67.2741,21.9173 C65.7281,23.1248 64.4263,24.9361 63.3688,27.3512 L83.1442,27.3512 Z" style="stroke:none;fill-rule:nonzero;fill:#ffff7f;fill-opacity:0.705882;"/>
        </g>
    </g>
    <g id="Layer11" name="Layer 7" opacity="1">
        <g id="Shape15">
            <desc shapeID="15" type="2" basicInfo-basicType="0" basicInfo-roundedRectRadius="12" basicInfo-polygonSides="6" basicInfo-starPoints="5" bounding="rect(-94.8053,-50.5451,189.611,101.09)" text="e" font-familyName="Century Gothic" font-pixelSize="60" font-bold="0" font-underline="0" font-alignment="1" strokeStyle="0" markerStart="0" markerEnd="0" shadowEnabled="0" shadowOffsetX="0" shadowOffsetY="2" shadowBlur="4" shadowOpacity="160" blurEnabled="0" blurRadius="4" transform="matrix(1,0,-0.146486,0.989213,73.7609,22.1313)" pers-center="0,0" pers-size="0,0" pers-start="0,0" pers-end="0,0" locked="0" mesh="" flag=""/>
            <path id="shapePath15" d="M83.7438,35.2248 L86.9348,37.0217 C85.4758,39.2242 83.904,41.0017 82.2194,42.3541 C80.5347,43.7066 78.7124,44.7354 76.7525,45.4406 C74.7926,46.1458 72.6408,46.4984 70.2971,46.4984 C65.1018,46.4984 61.2889,44.8127 58.8585,41.4412 C56.428,38.0698 55.5275,34.2588 56.157,30.0083 C56.7492,26.0089 58.5173,22.4443 61.4612,19.3144 C65.1952,15.3343 69.6988,13.3443 74.9723,13.3443 C80.402,13.3443 84.4361,15.3826 87.0746,19.4593 C88.9529,22.338 89.5927,25.9317 88.9937,30.2401 L60.3414,30.2401 C59.8759,33.911 60.6119,36.9202 62.5495,39.2677 C64.487,41.6151 67.1355,42.7888 70.4948,42.7888 C72.1159,42.7888 73.7346,42.5087 75.3507,41.9484 C76.9669,41.3881 78.3808,40.6443 79.5923,39.7169 C80.8039,38.7895 82.1877,37.2921 83.7438,35.2248 M85.0013,26.7335 C84.7748,24.5696 84.235,22.8404 83.3818,21.5459 C82.5285,20.2514 81.3012,19.2081 79.6998,18.416 C78.0983,17.6238 76.3503,17.2277 74.4558,17.2277 C71.3308,17.2277 68.4979,18.2227 65.9571,20.2128 C64.1019,21.6618 62.5398,23.8354 61.2708,26.7335 L85.0013,26.7335 Z" style="stroke:none;fill-rule:nonzero;fill:#f52520;fill-opacity:1;"/>
        </g>
    </g>
</svg>
